#!OML:ASF G:\JayActor3\Patient Classification 1\Patient 1\Session 6\male.ASF
:FULLY-SPECIFIED
:DEGREES
1019
root 7.14679 16.5057 -19.6024 10.9865 -131.027 2.39735
lowerback 11.3057 1.75033 2.93107
upperback 9.79325 1.70177 -1.76548
thorax 4.11705 0.726164 -3.64212
lowerneck -0.473309 -2.74104 -1.13549
upperneck 16.0688 -4.66697 3.1407
head 5.00027 -2.36339 0.935083
rclavicle -5.4467e-014 5.60573e-014
rhumerus 25.1132 22.6827 -63.4598
rradius 69.7794
rwrist -8.14628
rhand -32.1107 -8.69324
rfingers 7.12502
rthumb -5.3556 -38.6056
lclavicle -5.4467e-014 5.60573e-014
lhumerus -5.30124 1.26879 66.7775
lradius 52.42
lwrist 44.8542
lhand -13.6302 3.63625
lfingers 7.12502
lthumb 12.4856 33.2433
rfemur -33.0739 6.7219 3.87568
rtibia 36.7748
rfoot -14.3112 -26.8006
rtoes 3.73912
lfemur -17.7 3.26652 -7.49543
ltibia 18.7565
lfoot -6.58863 14.4399
ltoes -14.367
1020
root 7.16393 16.4771 -19.6736 11.1253 -130.226 2.01998
lowerback 11.2703 1.65938 3.0838
upperback 9.86361 1.59052 -1.68184
thorax 4.20647 0.679144 -3.63125
lowerneck -0.426722 -2.82429 -1.21727
upperneck 16.27 -4.79733 3.15352
head 5.05984 -2.4326 0.94554
rclavicle -5.62561e-014 2.82274e-014
rhumerus 25.0951 22.7141 -63.2356
rradius 69.7316
rwrist -8.16281
rhand -32.008 -8.64481
rfingers 7.12502
rthumb -5.25641 -38.5596
lclavicle -5.62561e-014 2.82274e-014
lhumerus -5.19104 1.12347 67.1978
lradius 52.1737
lwrist 44.7273
lhand -13.608 3.58545
lfingers 7.12502
lthumb 12.507 33.1912
rfemur -32.6935 7.03349 3.75475
rtibia 36.5519
rfoot -14.7026 -27.3241
rtoes 4.85103
lfemur -17.792 3.0596 -7.46159
ltibia 18.9308
lfoot -6.71121 13.8703
ltoes -14.5666
1021
root 7.18457 16.447 -19.7478 11.3239 -129.347 1.51874
lowerback 11.261 1.56278 3.17875
upperback 9.93053 1.46818 -1.60385
thorax 4.27452 0.623183 -3.59371
lowerneck -0.407461 -2.91514 -1.30423
upperneck 16.5192 -4.94598 3.1929
head 5.14032 -2.50933 0.963155
rclavicle -3.25013e-014 3.01159e-014
rhumerus 25.0463 22.7207 -63.0618
rradius 69.6426
rwrist -8.17201
rhand -31.9145 -8.56628
rfingers 7.12502
rthumb -5.16617 -38.4833
lclavicle -3.25013e-014 3.01159e-014
lhumerus -5.06447 0.952494 67.6216
lradius 51.945
lwrist 44.5962
lhand -13.5624 3.55928
lfingers 7.12502
lthumb 12.5511 33.1623
rfemur -32.2233 7.25572 3.65111
rtibia 36.5899
rfoot -15.3465 -28.0509
rtoes 5.75179
lfemur -17.8621 2.83765 -7.48521
ltibia 19.065
lfoot -6.81036 13.2122
ltoes -14.7429
1022
root 7.208 16.4169 -19.8251 11.5746 -128.41 0.906548
lowerback 11.275 1.46548 3.22599
upperback 9.99549 1.34194 -1.5281
thorax 4.32546 0.562256 -3.53191
lowerneck -0.419586 -3.01341 -1.41304
upperneck 16.8155 -5.1122 3.26231
head 5.24276 -2.59377 0.991631
rclavicle -3.41413e-014 3.96575e-014
rhumerus 24.9753 22.7126 -62.9288
rradius 69.5083
rwrist -8.17923
rhand -31.8304 -8.49854
rfingers 7.12502
rthumb -5.08497 -38.4175
lclavicle -3.41413e-014 3.96575e-014
lhumerus -4.92629 0.770007 68.0567
lradius 51.7325
lwrist 44.4535
lhand -13.4934 3.56216
lfingers 7.12502
lthumb 12.6176 33.1611
rfemur -31.6554 7.42646 3.56052
rtibia 36.8365
rfoot -16.3615 -28.9045
rtoes 6.39931
lfemur -17.8829 2.6014 -7.55741
ltibia 19.1284
lfoot -6.87935 12.4914
ltoes -14.8622
1023
root 7.23383 16.3876 -19.9047 11.8938 -127.41 0.185743
lowerback 11.291 1.3653 3.25076
upperback 10.0654 1.21011 -1.45753
thorax 4.37962 0.497472 -3.46258
lowerneck -0.450865 -3.12435 -1.52883
upperneck 17.1142 -5.29638 3.34135
head 5.35068 -2.686 1.02276
rclavicle -4.33848e-014 5.71506e-015
rhumerus 24.8984 22.675 -62.8407
rradius 69.3245
rwrist -8.17061
rhand -31.759 -8.46415
rfingers 7.12502
rthumb -5.01606 -38.3848
lclavicle -4.33848e-014 5.71506e-015
lhumerus -4.75233 0.576294 68.5032
lradius 51.5238
lwrist 44.3025
lhand -13.4177 3.57712
lfingers 7.12502
lthumb 12.6906 33.1715
rfemur -31.0062 7.58678 3.45891
rtibia 37.2168
rfoot -17.7448 -29.8155
rtoes 6.79218
lfemur -17.8633 2.35024 -7.67731
ltibia 19.0998
lfoot -6.8922 11.7173
ltoes -14.9603
1024
root 7.26127 16.3604 -19.9862 12.2793 -126.355 -0.619825
lowerback 11.3009 1.26452 3.28167
upperback 10.1375 1.0781 -1.38756
thorax 4.44012 0.43331 -3.39725
lowerneck -0.502564 -3.24879 -1.65599
upperneck 17.408 -5.49776 3.42617
head 5.46212 -2.78589 1.05607
rclavicle -8.28932e-014 2.98177e-015
rhumerus 24.7809 22.6066 -62.7735
rradius 69.1387
rwrist -8.15835
rhand -31.7056 -8.48245
rfingers 7.12502
rthumb -4.96443 -38.4043
lclavicle -8.28932e-014 2.98177e-015
lhumerus -4.54536 0.361674 68.9685
lradius 51.3139
lwrist 44.1467
lhand -13.3527 3.58105
lfingers 7.12502
lthumb 12.7532 33.1716
rfemur -30.3026 7.77501 3.33783
rtibia 37.6462
rfoot -19.3358 -30.7079
rtoes 6.94483
lfemur -17.8089 2.07892 -7.82715
ltibia 18.9734
lfoot -6.8535 10.91
ltoes -14.985
1025
root 7.28951 16.3364 -20.0685 12.7428 -125.262 -1.50623
lowerback 11.2912 1.16672 3.33464
upperback 10.2146 0.951266 -1.31893
thorax 4.51832 0.373695 -3.34595
lowerneck -0.573283 -3.39008 -1.787
upperneck 17.6768 -5.71657 3.50276
head 5.57009 -2.89365 1.08607
rclavicle 3.8763e-015 9.93923e-015
rhumerus 24.6305 22.5023 -62.7156
rradius 68.955
rwrist -8.13139
rhand -31.6641 -8.54481
rfingers 7.12502
rthumb -4.92437 -38.4676
lclavicle 3.8763e-015 9.93923e-015
lhumerus -4.30214 0.119761 69.4571
lradius 51.0984
lwrist 43.9892
lhand -13.3246 3.56745
lfingers 7.12502
lthumb 12.7802 33.1563
rfemur -29.5735 8.00301 3.18305
rtibia 38.0549
rfoot -20.9094 -31.5361
rtoes 6.84302
lfemur -17.7346 1.7815 -8.00489
ltibia 18.764
lfoot -6.76687 10.0968
ltoes -14.9229
1026
root 7.31787 16.3159 -20.1507 13.2457 -124.147 -2.40983
lowerback 11.248 1.07265 3.44774
upperback 10.2987 0.832461 -1.24252
thorax 4.62533 0.322301 -3.32067
lowerneck -0.667542 -3.5433 -1.92546
upperneck 17.9133 -5.94377 3.56636
head 5.67284 -3.0052 1.11222
rclavicle 8.68689e-014 -3.63776e-014
rhumerus 24.4703 22.367 -62.6562
rradius 68.7706
rwrist -8.0934
rhand -31.607 -8.61036
rfingers 7.12502
rthumb -4.86925 -38.5344
lclavicle 8.68689e-014 -3.63776e-014
lhumerus -4.03044 -0.147328 69.9668
lradius 50.88
lwrist 43.8448
lhand -13.3797 3.48411
lfingers 7.12502
lthumb 12.7272 33.0762
rfemur -28.8487 8.29484 3.02407
rtibia 38.4037
rfoot -22.2961 -32.2784
rtoes 6.66443
lfemur -17.6624 1.46216 -8.17103
ltibia 18.5065
lfoot -6.63749 9.30569
ltoes -14.8144
1027
root 7.34587 16.2989 -20.2317 13.753 -123.031 -3.27694
lowerback 11.1689 0.989728 3.65715
upperback 10.3883 0.733555 -1.15704
thorax 4.7627 0.287479 -3.34132
lowerneck -0.785876 -3.71106 -2.05597
upperneck 18.1082 -6.18119 3.60974
head 5.76687 -3.12082 1.12961
rclavicle 8.94531e-015 -7.43455e-014
rhumerus 24.3029 22.1918 -62.5865
rradius 68.5905
rwrist -8.02979
rhand -31.5415 -8.6992
rfingers 7.12502
rthumb -4.80602 -38.6247
lclavicle 8.94531e-015 -7.43455e-014
lhumerus -3.74113 -0.460097 70.4913
lradius 50.6775
lwrist 43.7294
lhand -13.5083 3.35728
lfingers 7.12502
lthumb 12.6032 32.9571
rfemur -28.1496 8.63366 2.89508
rtibia 38.688
rfoot -23.4546 -32.9491
rtoes 6.49631
lfemur -17.6242 1.13936 -8.29895
ltibia 18.2531
lfoot -6.47998 8.55151
ltoes -14.6775
